<svg xmlns="http://www.w3.org/2000/svg" width="100%" height="100%" viewBox="0 0 36 36" fill="none" preserveAspectRatio="xMidYMid meet" aria-hidden="true" role="img">
    <path fill-rule="evenodd" clip-rule="evenodd" d="M27.0462 18.638H24.204C24.0225 18.638 23.8534 18.5517 23.7507 18.407C23.6484 18.2628 23.6255 18.079 23.6907 17.9153L24.8485 15.0042L24.8586 14.9789C25.1514 14.2022 25.2991 13.3888 25.2991 12.5587C25.2991 8.66645 22.0249 5.5 18.0001 5.5C13.9757 5.5 10.7009 8.66645 10.7009 12.5587C10.7009 13.0442 10.7524 13.5289 10.8532 13.9995C10.9191 14.3065 11.0092 14.6164 11.1204 14.9201C11.1228 14.9261 11.1247 14.9318 11.1262 14.9377L11.206 15.1424L11.2152 15.1669L12.2845 17.9191C12.3481 18.0825 12.3249 18.2655 12.2217 18.4091C12.1194 18.5521 11.9504 18.6379 11.7696 18.6379H8.95438C7.8764 18.6379 7 19.4856 7 20.5282C7 21.57 7.8764 22.4181 8.95438 22.4181H11.9441C12.1669 22.4181 12.3677 22.548 12.4525 22.7475C12.5376 22.9466 12.4895 23.1759 12.3309 23.3279L10.1437 25.4219C9.77672 25.7771 9.57297 26.2518 9.57297 26.7565C9.57297 27.2615 9.77672 27.7359 10.1459 28.0931C10.5145 28.4501 11.0058 28.6464 11.5275 28.6464C12.0496 28.6464 12.5395 28.4507 12.9072 28.0952L15.1091 25.9868C15.2141 25.8859 15.354 25.8329 15.4957 25.8329C15.5668 25.8329 15.6388 25.846 15.7075 25.8737C15.912 25.9564 16.0452 26.1498 16.0452 26.3642V29.2765C16.0452 30.3186 16.9223 31.1667 17.9996 31.1667C19.0773 31.1667 19.9544 30.3186 19.9544 29.2765V26.3669C19.9544 26.1521 20.0874 25.9585 20.2928 25.8758C20.4974 25.7929 20.7338 25.8382 20.8912 25.9894L23.0814 28.0917C23.4521 28.4501 23.9431 28.6464 24.4648 28.6464C24.9867 28.6464 25.4776 28.4501 25.8467 28.0931C26.216 27.7358 26.419 27.2616 26.419 26.7565C26.419 26.2518 26.215 25.7766 25.8453 25.4186L23.6658 23.3271C23.5077 23.1751 23.4602 22.9464 23.5449 22.7472C23.63 22.548 23.8302 22.4181 24.0531 22.4181H27.0459C28.1232 22.4181 29 21.57 29 20.5282C29.0001 19.4858 28.1235 18.638 27.0462 18.638ZM15.9036 11.0824C15.0104 11.0824 14.2837 11.7851 14.2837 12.649C14.2837 13.5127 15.0104 14.2155 15.9036 14.2155C16.7966 14.2155 17.5233 13.5127 17.5233 12.649C17.5233 11.7851 16.7966 11.0824 15.9036 11.0824ZM21.5672 13.7569C20.9361 14.3675 19.9083 14.3672 19.277 13.7569C18.6451 13.1456 18.6451 12.1519 19.277 11.5408C19.908 10.9307 20.9357 10.9305 21.5672 11.5412C21.8169 11.7829 22.2221 11.7829 22.472 11.5412C22.7217 11.2997 22.7217 10.9081 22.472 10.6666C21.3416 9.57373 19.5025 9.57282 18.3723 10.6663C18.2967 10.7396 18.2269 10.816 18.1615 10.8952C17.6296 10.2558 16.8155 9.84521 15.9033 9.84521C14.3049 9.84521 13.0044 11.103 13.0044 12.6489C13.0044 14.1947 14.3049 15.4525 15.9033 15.4525C16.8155 15.4525 17.6296 15.0418 18.1615 14.4025C18.2269 14.4818 18.2965 14.558 18.3723 14.6314C18.9373 15.178 19.6797 15.4513 20.4222 15.4513C21.1646 15.4513 21.9066 15.178 22.472 14.6314C22.7217 14.3899 22.7217 13.9983 22.472 13.7569C22.2221 13.5151 21.8169 13.5151 21.5672 13.7569Z" fill="#aa5eea"/>
</svg>