<svg xmlns="http://www.w3.org/2000/svg" width="100%" height="100%" viewBox="0 0 28 24" fill="none" preserveAspectRatio="xMidYMid meet" aria-hidden="true" role="img">
    <path fill-rule="evenodd" clip-rule="evenodd" d="M17.85 4.37457H10.15C8.63655 4.37457 7.65933 4.37661 6.91557 4.43738C6.20245 4.49565 5.93806 4.59455 5.80828 4.66068C5.31435 4.91235 4.91278 5.31392 4.66111 5.80785C4.59498 5.93764 4.49607 6.20203 4.43781 6.91514C4.37704 7.6589 4.375 8.63612 4.375 10.1496V17.8496C4.375 19.363 4.37704 20.3402 4.43781 21.084C4.49607 21.7971 4.59498 22.0615 4.66111 22.1913C4.91278 22.6852 5.31435 23.0868 5.80828 23.3385C5.93806 23.4046 6.20245 23.5035 6.91557 23.5618C7.65933 23.6225 8.63655 23.6246 10.15 23.6246H17.85C19.3635 23.6246 20.3407 23.6225 21.0844 23.5618C21.7975 23.5035 22.0619 23.4046 22.1917 23.3385C22.6857 23.0868 23.0872 22.6852 23.3389 22.1913C23.405 22.0615 23.5039 21.7971 23.5622 21.084C23.623 20.3402 23.625 19.363 23.625 17.8496V10.1496C23.625 8.63612 23.623 7.6589 23.5622 6.91514C23.5039 6.20203 23.405 5.93764 23.3389 5.80785C23.0872 5.31392 22.6857 4.91235 22.1917 4.66068C22.0619 4.59455 21.7975 4.49565 21.0844 4.43738C20.3407 4.37661 19.3635 4.37457 17.85 4.37457ZM2.32222 4.61612C1.75 5.73916 1.75 7.2093 1.75 10.1496V17.8496C1.75 20.7898 1.75 22.26 2.32222 23.383C2.82555 24.3709 3.6287 25.174 4.61655 25.6774C5.73959 26.2496 7.20972 26.2496 10.15 26.2496H17.85C20.7903 26.2496 22.2604 26.2496 23.3835 25.6774C24.3713 25.174 25.1744 24.3709 25.6778 23.383C26.25 22.26 26.25 20.7898 26.25 17.8496V10.1496C26.25 7.2093 26.25 5.73916 25.6778 4.61612C25.1744 3.62827 24.3713 2.82512 23.3835 2.32179C22.2604 1.74957 20.7903 1.74957 17.85 1.74957H10.15C7.20972 1.74957 5.73959 1.74957 4.61655 2.32179C3.6287 2.82512 2.82555 3.62827 2.32222 4.61612Z" fill="currentColor"/>
    <path d="M8.75 9.18707C8.75 8.4622 9.33763 7.87457 10.0625 7.87457H17.9375C18.6624 7.87457 19.25 8.4622 19.25 9.18707C19.25 9.91195 18.6624 10.4996 17.9375 10.4996H10.0625C9.33763 10.4996 8.75 9.91195 8.75 9.18707Z" fill="currentColor"/>
</svg>